<svg xmlns="http://www.w3.org/2000/svg" viewBox="0 0 800 600" fill="none">
  <defs>
    <linearGradient id="heroPhoneBody" x1="0" y1="0" x2="1" y2="1">
      <stop offset="0" stop-color="#5a5a5c"/>
      <stop offset="0.3" stop-color="#3a3a3c"/>
      <stop offset="1" stop-color="#1d1d1f"/>
    </linearGradient>
    <linearGradient id="heroPhoneScreen" x1="0" y1="0" x2="1" y2="1">
      <stop offset="0" stop-color="#0a0a0a"/>
      <stop offset="0.5" stop-color="#1d1d1f"/>
      <stop offset="1" stop-color="#0a0a0a"/>
    </linearGradient>
    <radialGradient id="heroPhoneGlow" cx="0.5" cy="0.3" r="0.5">
      <stop offset="0" stop-color="#2997ff" stop-opacity="0.15"/>
      <stop offset="1" stop-color="#2997ff" stop-opacity="0"/>
    </radialGradient>
  </defs>
  <ellipse cx="350" cy="380" rx="180" ry="20" fill="#000" opacity="0.25"/>
  <g transform="translate(220 60)">
    <rect x="0" y="0" width="260" height="540" rx="44" ry="44" fill="url(#heroPhoneBody)"/>
    <rect x="6" y="6" width="248" height="528" rx="38" ry="38" fill="#0a0a0a"/>
    <rect x="12" y="12" width="236" height="516" rx="32" ry="32" fill="url(#heroPhoneScreen)"/>
    <rect x="12" y="12" width="236" height="516" rx="32" ry="32" fill="url(#heroPhoneGlow)"/>
    <rect x="86" y="22" width="88" height="24" rx="12" ry="12" fill="#000"/>
    <circle cx="106" cy="34" r="5" fill="#1a1a1a"/>
    <circle cx="150" cy="34" r="3" fill="#0a0a0a"/>
    <g transform="translate(50 140)">
      <rect x="0" y="0" width="160" height="28" rx="6" ry="6" fill="#2997ff" opacity="0.8"/>
      <rect x="0" y="40" width="120" height="20" rx="4" ry="4" fill="#2997ff" opacity="0.4"/>
      <rect x="0" y="72" width="140" height="20" rx="4" ry="4" fill="#2997ff" opacity="0.3"/>
    </g>
    <g transform="translate(170 380)" opacity="0.4">
      <circle cx="0" cy="0" r="44" fill="none" stroke="#3a3a3c" stroke-width="3"/>
      <circle cx="0" cy="0" r="36" fill="#1d1d1f"/>
      <circle cx="0" cy="0" r="22" fill="#0a0a0a"/>
      <circle cx="-8" cy="-8" r="6" fill="#5a5a5c" opacity="0.3"/>
    </g>
  </g>
</svg>
