<svg xmlns="http://www.w3.org/2000/svg" viewBox="0 0 600 400" fill="none">
  <defs>
    <linearGradient id="macTop" x1="0" y1="0" x2="0" y2="1">
      <stop offset="0" stop-color="#c4c4c8"/>
      <stop offset="1" stop-color="#a8a8ac"/>
    </linearGradient>
    <linearGradient id="macScreen" x1="0" y1="0" x2="1" y2="1">
      <stop offset="0" stop-color="#0a0a0a"/>
      <stop offset="1" stop-color="#1d1d1f"/>
    </linearGradient>
  </defs>
  <path d="M80 70 L520 70 Q530 70 530 80 L530 290 Q530 300 520 300 L80 300 Q70 300 70 290 L70 80 Q70 70 80 70 Z" fill="url(#macTop)"/>
  <rect x="84" y="84" width="432" height="202" rx="6" ry="6" fill="url(#macScreen)"/>
  <circle cx="300" cy="78" r="2" fill="#3a3a3c"/>
  <path d="M40 300 L560 300 Q570 300 568 308 L562 326 Q560 332 552 332 L48 332 Q40 332 38 326 L32 308 Q30 300 40 300 Z" fill="url(#macTop)"/>
  <rect x="248" y="300" width="104" height="6" rx="3" ry="3" fill="#888"/>
</svg>
